<?xml version="1.0" standalone="no"?><!DOCTYPE svg PUBLIC "-//W3C//DTD SVG 1.1//EN" "http://www.w3.org/Graphics/SVG/1.1/DTD/svg11.dtd"><svg t="1743277453247" class="icon" viewBox="0 0 1024 1024" version="1.1" xmlns="http://www.w3.org/2000/svg" p-id="4419" xmlns:xlink="http://www.w3.org/1999/xlink" width="200" height="200"><path d="M512 0c282.752 0 512 229.248 512 512s-229.248 512-512 512S0 794.752 0 512 229.248 0 512 0z m248.149333 318.805333c-6.613333-23.381333-34.645333-46.848-79.445333-40.746666-109.653333 14.933333-146.474667 41.728-144.469333 46.933333 0 0 52.906667 21.973333 66.218666 49.621333-106.88-59.392-234.794667-96.554667-275.413333-96.554666-27.946667 0-51.498667 16.085333-59.093333 38.144a85.76 85.76 0 0 0-8.661334 29.696c-22.613333 122.325333 77.653333 387.626667 108.373334 422.570666 0.298667 0.512 19.157333 20.864 33.109333 20.864 17.152 0 29.312-8.448 32.512-25.514666 3.157333-17.109333 24.618667-122.794667 39.68-144.042667 19.456-23.637333 51.498667-27.648 75.904 0 22.101333 29.354667 29.525333 125.952 33.536 144.042667 3.754667 12.288 16.682667 25.514667 32.085333 25.514666 13.141333 0 20.992-3.712 32.853334-17.322666C706.773333 698.752 768 493.312 768 369.365333c0-9.685333-4.522667-42.325333-7.850667-50.56z" fill="#0DAEAF" p-id="4420"></path></svg>